<svg xmlns="http://www.w3.org/2000/svg" xmlns:xlink="http://www.w3.org/1999/xlink" width="2000" zoomAndPan="magnify" viewBox="0 0 1500 1499.999933" height="2000" preserveAspectRatio="xMidYMid meet" version="1.0"><defs><g/></defs><g fill="#ffffff" fill-opacity="1"><g transform="translate(366.949224, 752.386547)"><g><path d="M 73.984375 2.15625 C 60.660156 2.15625 49.078125 -0.484375 39.234375 -5.765625 C 29.398438 -11.046875 21.867188 -18.15625 16.640625 -27.09375 C 11.421875 -36.03125 8.8125 -45.898438 8.8125 -56.703125 C 8.8125 -68.222656 11.78125 -78.363281 17.71875 -87.125 C 23.664062 -95.882812 31.796875 -102.632812 42.109375 -107.375 C 52.429688 -112.113281 64.015625 -114.484375 76.859375 -114.484375 C 83.222656 -114.484375 89.191406 -113.910156 94.765625 -112.765625 C 100.347656 -111.628906 104.941406 -109.976562 108.546875 -107.8125 C 109.503906 -107.332031 110.070312 -106.941406 110.25 -106.640625 C 110.425781 -106.347656 110.578125 -105.421875 110.703125 -103.859375 L 113.046875 -82.078125 C 113.046875 -81.722656 112.710938 -81.484375 112.046875 -81.359375 C 111.390625 -81.242188 111 -81.363281 110.875 -81.71875 C 108.238281 -90.476562 103.800781 -97.617188 97.5625 -103.140625 C 91.320312 -108.660156 83.039062 -111.421875 72.71875 -111.421875 C 63.601562 -111.421875 55.351562 -109.316406 47.96875 -105.109375 C 40.59375 -100.910156 34.773438 -94.851562 30.515625 -86.9375 C 26.253906 -79.019531 24.125 -69.84375 24.125 -59.40625 C 24.125 -48.957031 26.222656 -39.265625 30.421875 -30.328125 C 34.617188 -21.390625 40.828125 -14.191406 49.046875 -8.734375 C 57.265625 -3.273438 67.132812 -0.546875 78.65625 -0.546875 C 86.9375 -0.546875 92.726562 -2.132812 96.03125 -5.3125 C 99.332031 -8.488281 100.984375 -14.21875 100.984375 -22.5 C 100.984375 -28.738281 100.59375 -33.085938 99.8125 -35.546875 C 99.03125 -38.003906 97.347656 -39.65625 94.765625 -40.5 C 92.191406 -41.34375 87.601562 -41.765625 81 -41.765625 C 80.28125 -41.765625 79.921875 -42.242188 79.921875 -43.203125 C 79.921875 -43.554688 80.007812 -43.882812 80.1875 -44.1875 C 80.363281 -44.488281 80.570312 -44.640625 80.8125 -44.640625 C 90.414062 -44.035156 98.160156 -43.734375 104.046875 -43.734375 C 109.679688 -43.734375 115.679688 -43.914062 122.046875 -44.28125 C 122.523438 -44.28125 122.789062 -43.859375 122.84375 -43.015625 C 122.90625 -42.179688 122.640625 -41.765625 122.046875 -41.765625 C 119.160156 -41.878906 117.144531 -41.484375 116 -40.578125 C 114.863281 -39.679688 114.113281 -37.851562 113.75 -35.09375 C 113.394531 -32.332031 113.21875 -27.535156 113.21875 -20.703125 C 113.21875 -15.296875 113.425781 -11.453125 113.84375 -9.171875 C 114.269531 -6.898438 114.484375 -5.460938 114.484375 -4.859375 C 114.484375 -4.140625 114.363281 -3.660156 114.125 -3.421875 C 113.882812 -3.179688 113.34375 -2.941406 112.5 -2.703125 C 97.625 0.535156 84.785156 2.15625 73.984375 2.15625 Z M 73.984375 2.15625 "/></g></g></g><g fill="#ffffff" fill-opacity="1"><g transform="translate(505.009212, 752.386547)"><g><path d="M 65.875 2.15625 C 54.71875 2.15625 44.789062 -0.453125 36.09375 -5.671875 C 27.394531 -10.890625 20.671875 -17.96875 15.921875 -26.90625 C 11.179688 -35.84375 8.8125 -45.59375 8.8125 -56.15625 C 8.8125 -68.519531 11.929688 -79.109375 18.171875 -87.921875 C 24.421875 -96.742188 32.429688 -103.375 42.203125 -107.8125 C 51.984375 -112.257812 61.976562 -114.484375 72.1875 -114.484375 C 83.582031 -114.484375 93.597656 -111.8125 102.234375 -106.46875 C 110.878906 -101.125 117.507812 -94.070312 122.125 -85.3125 C 126.75 -76.5625 129.0625 -67.265625 129.0625 -57.421875 C 129.0625 -46.503906 126.179688 -36.484375 120.421875 -27.359375 C 114.660156 -18.242188 106.945312 -11.046875 97.28125 -5.765625 C 87.625 -0.484375 77.15625 2.15625 65.875 2.15625 Z M 72.1875 -1.796875 C 80.101562 -1.796875 87.207031 -3.773438 93.5 -7.734375 C 99.800781 -11.703125 104.78125 -17.492188 108.4375 -25.109375 C 112.101562 -32.734375 113.9375 -41.820312 113.9375 -52.375 C 113.9375 -63.539062 111.925781 -73.503906 107.90625 -82.265625 C 103.882812 -91.023438 98.15625 -97.863281 90.71875 -102.78125 C 83.28125 -107.695312 74.640625 -110.15625 64.796875 -110.15625 C 51.960938 -110.15625 41.941406 -105.925781 34.734375 -97.46875 C 27.535156 -89.007812 23.9375 -77.335938 23.9375 -62.453125 C 23.9375 -51.179688 25.976562 -40.921875 30.0625 -31.671875 C 34.144531 -22.429688 39.84375 -15.140625 47.15625 -9.796875 C 54.476562 -4.460938 62.820312 -1.796875 72.1875 -1.796875 Z M 72.1875 -1.796875 "/></g></g></g><g fill="#ffffff" fill-opacity="1"><g transform="translate(651.889207, 752.386547)"><g><path d="M 27 -91.984375 C 27 -87.421875 28.140625 -83.398438 30.421875 -79.921875 C 32.703125 -76.441406 35.460938 -73.5 38.703125 -71.09375 C 41.941406 -68.695312 46.5 -65.757812 52.375 -62.28125 C 58.5 -58.5625 63.300781 -55.378906 66.78125 -52.734375 C 70.257812 -50.097656 73.226562 -46.800781 75.6875 -42.84375 C 78.144531 -38.882812 79.375 -34.203125 79.375 -28.796875 C 79.375 -22.921875 77.90625 -17.640625 74.96875 -12.953125 C 72.03125 -8.273438 67.738281 -4.585938 62.09375 -1.890625 C 56.457031 0.804688 49.800781 2.15625 42.125 2.15625 C 32.40625 2.15625 23.765625 0 16.203125 -4.3125 C 15.597656 -4.675781 15.175781 -5.097656 14.9375 -5.578125 C 14.695312 -6.054688 14.519531 -6.773438 14.40625 -7.734375 L 12.421875 -32.9375 C 12.296875 -33.414062 12.5625 -33.710938 13.21875 -33.828125 C 13.882812 -33.953125 14.28125 -33.773438 14.40625 -33.296875 C 16.800781 -24.421875 20.578125 -16.832031 25.734375 -10.53125 C 30.898438 -4.226562 37.742188 -1.078125 46.265625 -1.078125 C 52.140625 -1.078125 57.054688 -2.632812 61.015625 -5.75 C 64.972656 -8.875 66.953125 -13.976562 66.953125 -21.0625 C 66.953125 -26.457031 65.753906 -31.101562 63.359375 -35 C 60.960938 -38.90625 58.050781 -42.207031 54.625 -44.90625 C 51.207031 -47.601562 46.5625 -50.695312 40.6875 -54.1875 C 34.800781 -57.90625 30.238281 -60.992188 27 -63.453125 C 23.757812 -65.910156 21 -69.03125 18.71875 -72.8125 C 16.4375 -76.59375 15.296875 -81.0625 15.296875 -86.21875 C 15.296875 -92.34375 16.914062 -97.535156 20.15625 -101.796875 C 23.394531 -106.054688 27.65625 -109.234375 32.9375 -111.328125 C 38.21875 -113.429688 43.800781 -114.484375 49.6875 -114.484375 C 57.125 -114.484375 64.257812 -113.101562 71.09375 -110.34375 C 72.894531 -109.5 73.796875 -108.414062 73.796875 -107.09375 L 74.875 -85.5 C 74.875 -85.019531 74.546875 -84.71875 73.890625 -84.59375 C 73.234375 -84.476562 72.84375 -84.660156 72.71875 -85.140625 C 71.519531 -91.503906 68.816406 -97.503906 64.609375 -103.140625 C 60.410156 -108.773438 54.351562 -111.59375 46.4375 -111.59375 C 40.082031 -111.59375 35.253906 -109.734375 31.953125 -106.015625 C 28.648438 -102.296875 27 -97.617188 27 -91.984375 Z M 27 -91.984375 "/></g></g></g><g fill="#ffffff" fill-opacity="1"><g transform="translate(749.989212, 752.386547)"><g><path d="M 130.3125 -2.15625 C 130.675781 -2.15625 130.859375 -1.796875 130.859375 -1.078125 C 130.859375 -0.359375 130.675781 0 130.3125 0 C 126.476562 0 123.476562 -0.0625 121.3125 -0.1875 L 108.546875 -0.359375 L 94.6875 -0.1875 C 92.644531 -0.0625 89.820312 0 86.21875 0 C 85.863281 0 85.6875 -0.359375 85.6875 -1.078125 C 85.6875 -1.796875 85.863281 -2.15625 86.21875 -2.15625 C 90.894531 -2.15625 94.285156 -2.453125 96.390625 -3.046875 C 98.492188 -3.648438 99.929688 -4.820312 100.703125 -6.5625 C 101.484375 -8.3125 101.875 -10.984375 101.875 -14.578125 L 101.875 -56.515625 L 34.734375 -56.515625 L 34.734375 -14.578125 C 34.734375 -10.984375 35.125 -8.3125 35.90625 -6.5625 C 36.6875 -4.820312 38.125 -3.648438 40.21875 -3.046875 C 42.320312 -2.453125 45.71875 -2.15625 50.40625 -2.15625 C 50.644531 -2.15625 50.765625 -1.796875 50.765625 -1.078125 C 50.765625 -0.359375 50.644531 0 50.40625 0 C 46.5625 0 43.5625 -0.0625 41.40625 -0.1875 L 27.90625 -0.359375 L 15.296875 -0.1875 C 13.140625 -0.0625 10.082031 0 6.125 0 C 5.882812 0 5.765625 -0.359375 5.765625 -1.078125 C 5.765625 -1.796875 5.882812 -2.15625 6.125 -2.15625 C 10.675781 -2.15625 14.003906 -2.453125 16.109375 -3.046875 C 18.210938 -3.648438 19.648438 -4.820312 20.421875 -6.5625 C 21.203125 -8.3125 21.59375 -10.984375 21.59375 -14.578125 L 21.59375 -97.921875 C 21.59375 -101.515625 21.203125 -104.148438 20.421875 -105.828125 C 19.648438 -107.515625 18.210938 -108.6875 16.109375 -109.34375 C 14.003906 -110.007812 10.734375 -110.34375 6.296875 -110.34375 C 6.054688 -110.34375 5.9375 -110.703125 5.9375 -111.421875 C 5.9375 -112.140625 6.054688 -112.5 6.296875 -112.5 L 15.484375 -112.3125 C 20.523438 -112.070312 24.664062 -111.953125 27.90625 -111.953125 C 31.5 -111.953125 36.054688 -112.070312 41.578125 -112.3125 L 50.40625 -112.5 C 50.644531 -112.5 50.765625 -112.140625 50.765625 -111.421875 C 50.765625 -110.703125 50.644531 -110.34375 50.40625 -110.34375 C 45.84375 -110.34375 42.476562 -109.984375 40.3125 -109.265625 C 38.15625 -108.546875 36.6875 -107.3125 35.90625 -105.5625 C 35.125 -103.820312 34.734375 -101.15625 34.734375 -97.5625 L 34.734375 -60.484375 L 101.875 -60.484375 L 101.875 -97.5625 C 101.875 -101.15625 101.484375 -103.820312 100.703125 -105.5625 C 99.929688 -107.3125 98.460938 -108.546875 96.296875 -109.265625 C 94.140625 -109.984375 90.78125 -110.34375 86.21875 -110.34375 C 85.863281 -110.34375 85.6875 -110.703125 85.6875 -111.421875 C 85.6875 -112.140625 85.863281 -112.5 86.21875 -112.5 L 94.6875 -112.3125 C 99.957031 -112.070312 104.578125 -111.953125 108.546875 -111.953125 C 111.785156 -111.953125 116.039062 -112.070312 121.3125 -112.3125 L 130.3125 -112.5 C 130.675781 -112.5 130.859375 -112.140625 130.859375 -111.421875 C 130.859375 -110.703125 130.675781 -110.34375 130.3125 -110.34375 C 125.757812 -110.34375 122.429688 -110.007812 120.328125 -109.34375 C 118.234375 -108.6875 116.796875 -107.515625 116.015625 -105.828125 C 115.234375 -104.148438 114.84375 -101.515625 114.84375 -97.921875 L 114.84375 -14.578125 C 114.84375 -10.984375 115.234375 -8.3125 116.015625 -6.5625 C 116.796875 -4.820312 118.234375 -3.648438 120.328125 -3.046875 C 122.429688 -2.453125 125.757812 -2.15625 130.3125 -2.15625 Z M 130.3125 -2.15625 "/></g></g></g><g fill="#ffffff" fill-opacity="1"><g transform="translate(895.78917, 752.386547)"><g><path d="M 86.21875 -27 C 86.21875 -27.363281 86.578125 -27.515625 87.296875 -27.453125 C 88.015625 -27.390625 88.375 -27.175781 88.375 -26.8125 C 87.300781 -19.019531 86.765625 -10.984375 86.765625 -2.703125 C 86.765625 -1.742188 86.550781 -1.050781 86.125 -0.625 C 85.707031 -0.207031 84.957031 0 83.875 0 L 7.734375 0 C 7.492188 0 7.375 -0.359375 7.375 -1.078125 C 7.375 -1.796875 7.492188 -2.15625 7.734375 -2.15625 C 12.179688 -2.15625 15.421875 -2.453125 17.453125 -3.046875 C 19.492188 -3.648438 20.875 -4.820312 21.59375 -6.5625 C 22.320312 -8.3125 22.6875 -10.984375 22.6875 -14.578125 L 22.6875 -97.921875 C 22.6875 -101.515625 22.320312 -104.148438 21.59375 -105.828125 C 20.875 -107.515625 19.492188 -108.6875 17.453125 -109.34375 C 15.421875 -110.007812 12.179688 -110.34375 7.734375 -110.34375 C 7.492188 -110.34375 7.375 -110.703125 7.375 -111.421875 C 7.375 -112.140625 7.492188 -112.5 7.734375 -112.5 L 80.8125 -112.5 C 81.894531 -112.5 82.4375 -111.957031 82.4375 -110.875 L 82.796875 -88.375 C 82.796875 -88.019531 82.460938 -87.84375 81.796875 -87.84375 C 81.140625 -87.84375 80.8125 -88.019531 80.8125 -88.375 C 80.09375 -94.851562 77.875 -99.832031 74.15625 -103.3125 C 70.4375 -106.800781 65.578125 -108.546875 59.578125 -108.546875 L 49.6875 -108.546875 C 44.039062 -108.546875 40.316406 -107.765625 38.515625 -106.203125 C 36.710938 -104.640625 35.8125 -101.640625 35.8125 -97.203125 L 35.8125 -60.484375 L 56.515625 -60.484375 C 62.515625 -60.484375 66.863281 -61.5 69.5625 -63.53125 C 72.269531 -65.570312 73.625 -68.875 73.625 -73.4375 C 73.625 -73.675781 73.984375 -73.796875 74.703125 -73.796875 C 75.421875 -73.796875 75.78125 -73.675781 75.78125 -73.4375 L 75.59375 -58.5 C 75.59375 -55.019531 75.65625 -52.378906 75.78125 -50.578125 L 75.953125 -41.578125 C 75.953125 -41.335938 75.59375 -41.21875 74.875 -41.21875 C 74.15625 -41.21875 73.796875 -41.335938 73.796875 -41.578125 C 73.796875 -46.859375 72.414062 -50.664062 69.65625 -53 C 66.894531 -55.34375 62.394531 -56.515625 56.15625 -56.515625 L 35.8125 -56.515625 L 35.8125 -15.296875 C 35.8125 -12.179688 36.171875 -9.84375 36.890625 -8.28125 C 37.617188 -6.71875 38.878906 -5.601562 40.671875 -4.9375 C 42.472656 -4.28125 45.234375 -3.953125 48.953125 -3.953125 L 61.734375 -3.953125 C 68.097656 -3.953125 73.378906 -5.960938 77.578125 -9.984375 C 81.773438 -14.003906 84.65625 -19.675781 86.21875 -27 Z M 86.21875 -27 "/></g></g></g><g fill="#ffffff" fill-opacity="1"><g transform="translate(1001.989188, 752.386547)"><g><path d="M 127.265625 -112.5 C 127.617188 -112.5 127.796875 -112.140625 127.796875 -111.421875 C 127.796875 -110.703125 127.617188 -110.34375 127.265625 -110.34375 C 122.335938 -110.34375 118.703125 -108.867188 116.359375 -105.921875 C 114.023438 -102.984375 112.859375 -98.394531 112.859375 -92.15625 L 112.859375 2.15625 C 112.859375 2.519531 112.554688 2.757812 111.953125 2.875 C 111.359375 3 110.941406 2.941406 110.703125 2.703125 L 26.8125 -97.734375 L 26.28125 -98.453125 L 26.28125 -20.15625 C 26.28125 -13.914062 27.421875 -9.351562 29.703125 -6.46875 C 31.984375 -3.59375 35.519531 -2.15625 40.3125 -2.15625 C 40.675781 -2.15625 40.859375 -1.796875 40.859375 -1.078125 C 40.859375 -0.359375 40.675781 0 40.3125 0 C 37.4375 0 35.160156 -0.0625 33.484375 -0.1875 L 24.296875 -0.359375 L 14.765625 -0.1875 C 12.960938 -0.0625 10.378906 0 7.015625 0 C 6.773438 0 6.65625 -0.359375 6.65625 -1.078125 C 6.65625 -1.796875 6.773438 -2.15625 7.015625 -2.15625 C 12.179688 -2.15625 15.929688 -3.59375 18.265625 -6.46875 C 20.609375 -9.351562 21.78125 -13.914062 21.78125 -20.15625 L 21.78125 -103.140625 C 16.863281 -107.941406 11.882812 -110.34375 6.84375 -110.34375 C 6.476562 -110.34375 6.296875 -110.703125 6.296875 -111.421875 C 6.296875 -112.140625 6.476562 -112.5 6.84375 -112.5 L 13.5 -112.3125 C 14.9375 -112.195312 16.976562 -112.140625 19.625 -112.140625 L 28.078125 -112.3125 C 29.035156 -112.4375 30.296875 -112.5 31.859375 -112.5 C 32.816406 -112.5 33.503906 -112.285156 33.921875 -111.859375 C 34.347656 -111.441406 35.039062 -110.515625 36 -109.078125 C 37.4375 -106.921875 38.875 -104.941406 40.3125 -103.140625 L 108.359375 -20.703125 L 108.359375 -92.15625 C 108.359375 -98.394531 107.273438 -102.984375 105.109375 -105.921875 C 102.953125 -108.867188 99.414062 -110.34375 94.5 -110.34375 C 94.257812 -110.34375 94.140625 -110.703125 94.140625 -111.421875 C 94.140625 -112.140625 94.257812 -112.5 94.5 -112.5 L 101.515625 -112.3125 C 105.359375 -112.070312 108.421875 -111.953125 110.703125 -111.953125 C 112.984375 -111.953125 116.039062 -112.070312 119.875 -112.3125 Z M 127.265625 -112.5 "/></g></g></g><g fill="#ffffff" fill-opacity="1"><g transform="translate(554.046233, 878.138448)"><g><path d="M 87.0625 -1.4375 C 87.300781 -1.4375 87.421875 -1.195312 87.421875 -0.71875 C 87.421875 -0.238281 87.300781 0 87.0625 0 C 84.5 0 82.492188 -0.0390625 81.046875 -0.125 L 72.515625 -0.234375 L 63.25 -0.125 C 61.882812 -0.0390625 60 0 57.59375 0 C 57.351562 0 57.234375 -0.238281 57.234375 -0.71875 C 57.234375 -1.195312 57.351562 -1.4375 57.59375 -1.4375 C 60.726562 -1.4375 62.992188 -1.632812 64.390625 -2.03125 C 65.796875 -2.4375 66.757812 -3.21875 67.28125 -4.375 C 67.800781 -5.539062 68.0625 -7.328125 68.0625 -9.734375 L 68.0625 -37.765625 L 23.203125 -37.765625 L 23.203125 -9.734375 C 23.203125 -7.328125 23.460938 -5.539062 23.984375 -4.375 C 24.503906 -3.21875 25.46875 -2.4375 26.875 -2.03125 C 28.28125 -1.632812 30.546875 -1.4375 33.671875 -1.4375 C 33.828125 -1.4375 33.90625 -1.195312 33.90625 -0.71875 C 33.90625 -0.238281 33.828125 0 33.671875 0 C 31.109375 0 29.101562 -0.0390625 27.65625 -0.125 L 18.640625 -0.234375 L 10.21875 -0.125 C 8.78125 -0.0390625 6.738281 0 4.09375 0 C 3.925781 0 3.84375 -0.238281 3.84375 -0.71875 C 3.84375 -1.195312 3.925781 -1.4375 4.09375 -1.4375 C 7.132812 -1.4375 9.351562 -1.632812 10.75 -2.03125 C 12.15625 -2.4375 13.117188 -3.21875 13.640625 -4.375 C 14.171875 -5.539062 14.4375 -7.328125 14.4375 -9.734375 L 14.4375 -65.421875 C 14.4375 -67.828125 14.171875 -69.585938 13.640625 -70.703125 C 13.117188 -71.828125 12.15625 -72.609375 10.75 -73.046875 C 9.351562 -73.492188 7.171875 -73.71875 4.203125 -73.71875 C 4.046875 -73.71875 3.96875 -73.957031 3.96875 -74.4375 C 3.96875 -74.914062 4.046875 -75.15625 4.203125 -75.15625 L 10.34375 -75.03125 C 13.707031 -74.875 16.472656 -74.796875 18.640625 -74.796875 C 21.046875 -74.796875 24.09375 -74.875 27.78125 -75.03125 L 33.671875 -75.15625 C 33.828125 -75.15625 33.90625 -74.914062 33.90625 -74.4375 C 33.90625 -73.957031 33.828125 -73.71875 33.671875 -73.71875 C 30.617188 -73.71875 28.367188 -73.472656 26.921875 -72.984375 C 25.484375 -72.503906 24.503906 -71.679688 23.984375 -70.515625 C 23.460938 -69.359375 23.203125 -67.578125 23.203125 -65.171875 L 23.203125 -40.40625 L 68.0625 -40.40625 L 68.0625 -65.171875 C 68.0625 -67.578125 67.800781 -69.359375 67.28125 -70.515625 C 66.757812 -71.679688 65.773438 -72.503906 64.328125 -72.984375 C 62.890625 -73.472656 60.644531 -73.71875 57.59375 -73.71875 C 57.351562 -73.71875 57.234375 -73.957031 57.234375 -74.4375 C 57.234375 -74.914062 57.351562 -75.15625 57.59375 -75.15625 L 63.25 -75.03125 C 66.78125 -74.875 69.867188 -74.796875 72.515625 -74.796875 C 74.671875 -74.796875 77.515625 -74.875 81.046875 -75.03125 L 87.0625 -75.15625 C 87.300781 -75.15625 87.421875 -74.914062 87.421875 -74.4375 C 87.421875 -73.957031 87.300781 -73.71875 87.0625 -73.71875 C 84.007812 -73.71875 81.78125 -73.492188 80.375 -73.046875 C 78.976562 -72.609375 78.019531 -71.828125 77.5 -70.703125 C 76.976562 -69.585938 76.71875 -67.828125 76.71875 -65.421875 L 76.71875 -9.734375 C 76.71875 -7.328125 76.976562 -5.539062 77.5 -4.375 C 78.019531 -3.21875 78.976562 -2.4375 80.375 -2.03125 C 81.78125 -1.632812 84.007812 -1.4375 87.0625 -1.4375 Z M 87.0625 -1.4375 "/></g></g></g><g fill="#ffffff" fill-opacity="1"><g transform="translate(663.471071, 878.138448)"><g><path d="M 24.53125 -9.734375 C 24.53125 -7.253906 24.769531 -5.453125 25.25 -4.328125 C 25.726562 -3.203125 26.648438 -2.4375 28.015625 -2.03125 C 29.378906 -1.632812 31.546875 -1.4375 34.515625 -1.4375 C 34.671875 -1.4375 34.75 -1.195312 34.75 -0.71875 C 34.75 -0.238281 34.671875 0 34.515625 0 C 32.023438 0 30.0625 -0.0390625 28.625 -0.125 L 19.96875 -0.234375 L 11.671875 -0.125 C 10.140625 -0.0390625 8.09375 0 5.53125 0 C 5.289062 0 5.171875 -0.238281 5.171875 -0.71875 C 5.171875 -1.195312 5.289062 -1.4375 5.53125 -1.4375 C 8.5 -1.4375 10.660156 -1.632812 12.015625 -2.03125 C 13.378906 -2.4375 14.320312 -3.21875 14.84375 -4.375 C 15.363281 -5.539062 15.625 -7.328125 15.625 -9.734375 L 15.625 -65.421875 C 15.625 -67.828125 15.363281 -69.585938 14.84375 -70.703125 C 14.320312 -71.828125 13.378906 -72.609375 12.015625 -73.046875 C 10.660156 -73.492188 8.5 -73.71875 5.53125 -73.71875 C 5.289062 -73.71875 5.171875 -73.957031 5.171875 -74.4375 C 5.171875 -74.914062 5.289062 -75.15625 5.53125 -75.15625 L 11.671875 -75.03125 C 15.035156 -74.875 17.800781 -74.796875 19.96875 -74.796875 C 22.289062 -74.796875 25.210938 -74.875 28.734375 -75.03125 L 34.515625 -75.15625 C 34.671875 -75.15625 34.75 -74.914062 34.75 -74.4375 C 34.75 -73.957031 34.671875 -73.71875 34.515625 -73.71875 C 31.628906 -73.71875 29.484375 -73.472656 28.078125 -72.984375 C 26.671875 -72.503906 25.726562 -71.679688 25.25 -70.515625 C 24.769531 -69.359375 24.53125 -67.578125 24.53125 -65.171875 Z M 24.53125 -9.734375 "/></g></g></g><g fill="#ffffff" fill-opacity="1"><g transform="translate(721.67107, 878.138448)"><g><path d="M 22.84375 -10.21875 C 22.84375 -7.976562 23.0625 -6.335938 23.5 -5.296875 C 23.945312 -4.253906 24.789062 -3.550781 26.03125 -3.1875 C 27.269531 -2.820312 29.253906 -2.640625 31.984375 -2.640625 L 43.53125 -2.640625 C 48.34375 -2.640625 52.289062 -4.101562 55.375 -7.03125 C 58.457031 -9.957031 60.484375 -13.945312 61.453125 -19 C 61.453125 -19.238281 61.671875 -19.335938 62.109375 -19.296875 C 62.546875 -19.253906 62.765625 -19.113281 62.765625 -18.875 C 62.046875 -12.0625 61.6875 -6.367188 61.6875 -1.796875 C 61.6875 -1.160156 61.566406 -0.703125 61.328125 -0.421875 C 61.085938 -0.140625 60.609375 0 59.890625 0 L 4.09375 0 C 3.925781 0 3.84375 -0.238281 3.84375 -0.71875 C 3.84375 -1.195312 3.925781 -1.4375 4.09375 -1.4375 C 7.050781 -1.4375 9.210938 -1.632812 10.578125 -2.03125 C 11.941406 -2.4375 12.863281 -3.21875 13.34375 -4.375 C 13.820312 -5.539062 14.0625 -7.328125 14.0625 -9.734375 L 14.0625 -65.421875 C 14.0625 -67.828125 13.820312 -69.585938 13.34375 -70.703125 C 12.863281 -71.828125 11.941406 -72.609375 10.578125 -73.046875 C 9.210938 -73.492188 7.050781 -73.71875 4.09375 -73.71875 C 3.925781 -73.71875 3.84375 -73.957031 3.84375 -74.4375 C 3.84375 -74.914062 3.925781 -75.15625 4.09375 -75.15625 L 10.09375 -75.03125 C 13.46875 -74.875 16.234375 -74.796875 18.390625 -74.796875 C 20.722656 -74.796875 23.570312 -74.875 26.9375 -75.03125 L 32.828125 -75.15625 C 32.984375 -75.15625 33.0625 -74.914062 33.0625 -74.4375 C 33.0625 -73.957031 32.984375 -73.71875 32.828125 -73.71875 C 29.941406 -73.71875 27.796875 -73.492188 26.390625 -73.046875 C 24.992188 -72.609375 24.050781 -71.804688 23.5625 -70.640625 C 23.082031 -69.484375 22.84375 -67.703125 22.84375 -65.296875 Z M 22.84375 -10.21875 "/></g></g></g><g fill="#ffffff" fill-opacity="1"><g transform="translate(804.040521, 878.138448)"><g><path d="M 22.84375 -10.21875 C 22.84375 -7.976562 23.0625 -6.335938 23.5 -5.296875 C 23.945312 -4.253906 24.789062 -3.550781 26.03125 -3.1875 C 27.269531 -2.820312 29.253906 -2.640625 31.984375 -2.640625 L 43.53125 -2.640625 C 48.34375 -2.640625 52.289062 -4.101562 55.375 -7.03125 C 58.457031 -9.957031 60.484375 -13.945312 61.453125 -19 C 61.453125 -19.238281 61.671875 -19.335938 62.109375 -19.296875 C 62.546875 -19.253906 62.765625 -19.113281 62.765625 -18.875 C 62.046875 -12.0625 61.6875 -6.367188 61.6875 -1.796875 C 61.6875 -1.160156 61.566406 -0.703125 61.328125 -0.421875 C 61.085938 -0.140625 60.609375 0 59.890625 0 L 4.09375 0 C 3.925781 0 3.84375 -0.238281 3.84375 -0.71875 C 3.84375 -1.195312 3.925781 -1.4375 4.09375 -1.4375 C 7.050781 -1.4375 9.210938 -1.632812 10.578125 -2.03125 C 11.941406 -2.4375 12.863281 -3.21875 13.34375 -4.375 C 13.820312 -5.539062 14.0625 -7.328125 14.0625 -9.734375 L 14.0625 -65.421875 C 14.0625 -67.828125 13.820312 -69.585938 13.34375 -70.703125 C 12.863281 -71.828125 11.941406 -72.609375 10.578125 -73.046875 C 9.210938 -73.492188 7.050781 -73.71875 4.09375 -73.71875 C 3.925781 -73.71875 3.84375 -73.957031 3.84375 -74.4375 C 3.84375 -74.914062 3.925781 -75.15625 4.09375 -75.15625 L 10.09375 -75.03125 C 13.46875 -74.875 16.234375 -74.796875 18.390625 -74.796875 C 20.722656 -74.796875 23.570312 -74.875 26.9375 -75.03125 L 32.828125 -75.15625 C 32.984375 -75.15625 33.0625 -74.914062 33.0625 -74.4375 C 33.0625 -73.957031 32.984375 -73.71875 32.828125 -73.71875 C 29.941406 -73.71875 27.796875 -73.492188 26.390625 -73.046875 C 24.992188 -72.609375 24.050781 -71.804688 23.5625 -70.640625 C 23.082031 -69.484375 22.84375 -67.703125 22.84375 -65.296875 Z M 22.84375 -10.21875 "/></g></g></g><g fill="#ffffff" fill-opacity="1"><g transform="translate(886.410005, 878.138448)"><g><path d="M 18.03125 -61.453125 C 18.03125 -58.398438 18.789062 -55.710938 20.3125 -53.390625 C 21.84375 -51.066406 23.6875 -49.101562 25.84375 -47.5 C 28.007812 -45.894531 31.0625 -43.929688 35 -41.609375 C 39.082031 -39.117188 42.285156 -36.992188 44.609375 -35.234375 C 46.929688 -33.472656 48.914062 -31.269531 50.5625 -28.625 C 52.207031 -25.976562 53.03125 -22.847656 53.03125 -19.234375 C 53.03125 -15.304688 52.046875 -11.78125 50.078125 -8.65625 C 48.117188 -5.53125 45.253906 -3.066406 41.484375 -1.265625 C 37.710938 0.535156 33.265625 1.4375 28.140625 1.4375 C 21.640625 1.4375 15.867188 -0.00390625 10.828125 -2.890625 C 10.421875 -3.128906 10.132812 -3.40625 9.96875 -3.71875 C 9.8125 -4.039062 9.695312 -4.523438 9.625 -5.171875 L 8.296875 -22 C 8.210938 -22.320312 8.390625 -22.523438 8.828125 -22.609375 C 9.273438 -22.691406 9.539062 -22.570312 9.625 -22.25 C 11.226562 -16.3125 13.75 -11.238281 17.1875 -7.03125 C 20.632812 -2.820312 25.207031 -0.71875 30.90625 -0.71875 C 34.832031 -0.71875 38.117188 -1.757812 40.765625 -3.84375 C 43.410156 -5.925781 44.734375 -9.332031 44.734375 -14.0625 C 44.734375 -17.675781 43.929688 -20.785156 42.328125 -23.390625 C 40.722656 -25.992188 38.773438 -28.195312 36.484375 -30 C 34.203125 -31.800781 31.097656 -33.863281 27.171875 -36.1875 C 23.242188 -38.675781 20.195312 -40.742188 18.03125 -42.390625 C 15.875 -44.035156 14.03125 -46.117188 12.5 -48.640625 C 10.976562 -51.160156 10.21875 -54.144531 10.21875 -57.59375 C 10.21875 -61.6875 11.300781 -65.15625 13.46875 -68 C 15.632812 -70.84375 18.476562 -72.96875 22 -74.375 C 25.53125 -75.78125 29.257812 -76.484375 33.1875 -76.484375 C 38.15625 -76.484375 42.925781 -75.5625 47.5 -73.71875 C 48.695312 -73.15625 49.296875 -72.429688 49.296875 -71.546875 L 50.03125 -57.125 C 50.03125 -56.800781 49.804688 -56.597656 49.359375 -56.515625 C 48.921875 -56.429688 48.660156 -56.550781 48.578125 -56.875 C 47.773438 -61.125 45.972656 -65.132812 43.171875 -68.90625 C 40.367188 -72.675781 36.320312 -74.5625 31.03125 -74.5625 C 26.78125 -74.5625 23.550781 -73.316406 21.34375 -70.828125 C 19.132812 -68.335938 18.03125 -65.210938 18.03125 -61.453125 Z M 18.03125 -61.453125 "/></g></g></g><path stroke-linecap="butt" transform="matrix(0.749967, 0.0070086, -0.0070086, 0.749967, 384.569151, 837.638452)" fill="none" stroke-linejoin="miter" d="M -0.000615319 1.997782 L 214.024383 1.997762 " stroke="#ffffff" stroke-width="4" stroke-opacity="1" stroke-miterlimit="4"/><path stroke-linecap="butt" transform="matrix(0.749967, 0.0070086, -0.0070086, 0.749967, 961.089791, 839.138452)" fill="none" stroke-linejoin="miter" d="M -0.00209351 1.997796 L 214.022905 1.997776 " stroke="#ffffff" stroke-width="4" stroke-opacity="1" stroke-miterlimit="4"/></svg>